<?xml version="1.0" encoding="UTF-8" standalone="no"?>
<svg
   width="16"
   height="16"
   viewBox="0 0 16 16">
    <circle
       style="fill:#add8e6;stroke-width:2.66667;stroke-linecap:round;stroke-linejoin:round"
       id="path12"
       cx="8"
       cy="8"
       r="8" />
    <path
       id="head"
       style="fill:#36454f"
       d="M 8 1 A 4 4 0 0 0 4 5 C 4 7.0000003 3 7.9999995 3 10 L 13 10 C 13 7.9999995 12 7.0000002 12 5 A 4 4 0 0 0 8 1 z " />
    <path
       id="eyes"
       style="fill:#cfd9df"
       transform="scale(-1,1)"
       d="m -8.75,3.5000002 a 1,1 0 0 1 -1,1 1,1 0 0 1 -1,-1 1,1 0 0 1 1,-1 1,1 0 0 1 1,1 z m 1.5,0 a 1,1 0 0 0 1,1 1,1 0 0 0 1,-1 1,1 0 0 0 -1,-1 1,1 0 0 0 -1,1 z" />
    <path
       id="coin_border"
       style="fill:#daa520"
       d="M 8 5 A 5 5.0000005 0 0 0 3 10 A 5 5.0000005 0 0 0 8 15 A 5 5.0000005 0 0 0 13 10 A 5 5.0000005 0 0 0 8 5 z " />
    <path
       id="coin_center"
       style="fill:#b8860b"
       d="M 8 6 A 4 4 0 0 0 4 10 A 4 4 0 0 0 8 14 A 4 4 0 0 0 12 10 A 4 4 0 0 0 8 6 z " />
    <path
       id="wings"
       style="fill:#252f35"
       d="M 3.960007,6.2972202 C 3.353416,6.3752342 2.523406,8.1145493 2.904443,9.115946 3.401888,10.423272 6.1979152,10.876634 6.2699508,10.533473 6.3559108,10.123979 5.49443,9.5775156 4.933,8.4561296 4.433784,7.4590091 4.612852,6.2132571 3.960007,6.2972202 Z m 8.079986,0 c 0.606591,0.078014 1.436601,1.8173291 1.055564,2.8187258 -0.497445,1.307326 -3.2934722,1.760688 -3.3655078,1.417527 C 9.6440892,10.123979 10.50557,9.5775156 11.067,8.4561296 11.566216,7.4590091 11.387148,6.2132571 12.039993,6.2972202 Z"/>
    <path
       id="legs"
       style="fill:#ffd700"
       d="m 13.87144,12.484215 c -4.93e-4,-0.589797 -2.040866,-1.827354 -2.554272,-1.535604 -0.570069,0.32395 -0.849432,2.791832 -0.684179,3.071207 0.0942,0.159262 0.58177,0.533571 0.775404,0.516936 0.427808,-0.03675 2.46358,-1.415073 2.463047,-2.052539 z m -11.7428802,0 c 4.931e-4,-0.589797 2.0408662,-1.827354 2.5542717,-1.535604 0.5700698,0.32395 0.8494324,2.791832 0.6841799,3.071207 C 5.272807,14.17908 4.7852413,14.553389 4.5916075,14.536754 4.163799,14.500001 2.1280268,13.121681 2.1285598,12.484215 Z" />
    <path
       id="pupil"
       style="fill:#0f1316"
       transform="scale(-1,1)"
       d="m -9.1999998,3.7 a 0.5,0.5 0 0 1 -0.5,0.5 A 0.5,0.5 0 0 1 -10.2,3.7 a 0.5,0.5 0 0 1 0.5000002,-0.5 0.5,0.5 0 0 1 0.5,0.5 z m 2.3999996,0 a 0.5,0.5 0 0 0 0.5,0.5 0.5,0.5 0 0 0 0.5,-0.5 0.5,0.5 0 0 0 -0.5,-0.5 0.5,0.5 0 0 0 -0.5,0.5 z" />
    <path
        id="beak_down"
       style="fill:#8a6300"
       d="M 9.5,5.2446987 C 9.499619,5.6673525 8.2069533,6.2446988 8,6.2446988 c -0.2069533,0 -1.499619,-0.6379574 -1.5,-1.0000001 -3.81e-4,-0.3620426 3.000381,-0.4226536 3,0 z" />
    <path
        id="beak_up"
       style="fill:#dbb31c"
       d="m 6.5,5.2 c 3.81e-4,-0.4226537 1.2930467,-1 1.5,-1 0.2069533,0 1.499619,0.6379574 1.5,1 C 9.5001922,5.3826455 8.7567643,5.155134 8,5.161 7.2566945,5.16676 6.4998112,5.4094309 6.5,5.2 Z" />
</svg>
