<?xml version="1.0" encoding="UTF-8" standalone="no"?>
<svg
   width="16"
   height="16"
   viewBox="0 0 16 16"
   version="1.1"
   id="svg1"
   sodipodi:docname="icon.svg"
   inkscape:version="1.4.2 (ebf0e940, 2025-05-08)"
   xmlns:inkscape="http://www.inkscape.org/namespaces/inkscape"
   xmlns:sodipodi="http://sodipodi.sourceforge.net/DTD/sodipodi-0.dtd"
   xmlns="http://www.w3.org/2000/svg"
   xmlns:svg="http://www.w3.org/2000/svg">
  <defs
     id="defs1" />
  <sodipodi:namedview
     id="namedview1"
     pagecolor="#ffffff"
     bordercolor="#000000"
     borderopacity="0.25"
     inkscape:showpageshadow="2"
     inkscape:pageopacity="0.0"
     inkscape:pagecheckerboard="0"
     inkscape:deskcolor="#d1d1d1"
     showgrid="false"
     inkscape:zoom="31.742289"
     inkscape:cx="3.4811604"
     inkscape:cy="7.151343"
     inkscape:window-width="1728"
     inkscape:window-height="1051"
     inkscape:window-x="0"
     inkscape:window-y="38"
     inkscape:window-maximized="0"
     inkscape:current-layer="svg1">
    <inkscape:grid
       id="grid1"
       units="px"
       originx="0"
       originy="0"
       spacingx="1"
       spacingy="1"
       empcolor="#0099e5"
       empopacity="0.30196078"
       color="#0099e5"
       opacity="0.14901961"
       empspacing="8"
       enabled="true"
       visible="false" />
  </sodipodi:namedview>
  <circle
     style="fill:#add8e6"
     id="path12"
     cx="-8"
     cy="8"
     r="8"
     transform="scale(-1,1)" />
  <path
     id="path4"
     style="fill:#36454f;stroke:#000000;stroke-opacity:1;stroke-width:0.1;stroke-dasharray:none"
     d="M 8,1 C 5.790861,1 4.3886719,2.790861 4.3886719,5 4.3886719,7.0000003 3,7.9999995 3,10 H 13 C 13,7.9999995 11.611328,7.0000003 11.611328,5 11.611328,2.790861 10.209139,1 8,1 Z"
     sodipodi:nodetypes="ssccss"
     inkscape:label="head" />
  <path
     id="coin_border"
     style="fill:#daa520;fill-opacity:1;stroke:#000000;stroke-opacity:1;stroke-width:0.1;stroke-dasharray:none"
     d="M 8 5 A 5 5.0000005 0 0 0 3 10 A 5 5.0000005 0 0 0 8 15 A 5 5.0000005 0 0 0 13 10 A 5 5.0000005 0 0 0 8 5 z " />
  <path
     id="coin_center"
     style="fill:#b8860b;fill-opacity:1;stroke:#000000;stroke-opacity:1;stroke-width:0.1;stroke-dasharray:none"
     d="M 8 6 A 4 4 0 0 0 4 10 A 4 4 0 0 0 8 14 A 4 4 0 0 0 12 10 A 4 4 0 0 0 8 6 z " />
  <path
     id="wings"
     style="fill:#252f35;stroke:#000000;stroke-width:0.1;stroke-dasharray:none;stroke-opacity:1"
     d="M 4.2578125,6.5585938 C 3.6873069,6.5734538 2.4044822,7.4761716 2.9042969,9.2148438 3.1298045,9.9993024 5.8440073,10.281861 6.2695312,9.6328125 6.7874713,8.8428032 5.56143,8.6975579 5,7.5761719 4.6070624,6.791329 4.5606146,6.5507065 4.2578125,6.5585938 Z m 7.4843755,0 C 11.439385,6.5507065 11.392937,6.791329 11,7.5761719 10.43857,8.6975579 9.2125286,8.8428032 9.7304688,9.6328125 10.155993,10.281861 12.870195,9.9993024 13.095703,9.2148438 13.595521,7.4761611 12.312681,6.5734536 11.742188,6.5585938 Z"
     sodipodi:nodetypes="ssssssssss" />
  <path
     id="path5"
     style="fill:#ffd700;stroke:#000000;stroke-width:0.1;stroke-dasharray:none;stroke-opacity:1"
     d="M 5.0019531 11.404297 C 4.3056244 11.382421 2.6293531 12.449871 2.6289062 12.984375 C 2.6283733 13.621841 4.6639884 15.000356 5.0917969 15.037109 C 5.2854307 15.053744 5.7729831 14.678793 5.8671875 14.519531 C 6.03244 14.240156 5.7536635 11.773169 5.1835938 11.449219 C 5.135462 11.421867 5.0739871 11.40656 5.0019531 11.404297 z M 10.998047 11.404297 C 10.926013 11.40656 10.864538 11.421867 10.816406 11.449219 C 10.246337 11.773169 9.9675595 14.240156 10.132812 14.519531 C 10.227013 14.678793 10.714569 15.053744 10.908203 15.037109 C 11.336011 15.000359 13.371627 13.621841 13.371094 12.984375 C 13.370647 12.449871 11.694376 11.382421 10.998047 11.404297 z "
     inkscape:label="legs" />
  <path
     id="eyes"
     style="fill:#ebeff1;stroke-width:0.1;stroke:#000000;stroke-opacity:1;stroke-dasharray:none"
     d="M 6.375 2.75 A 0.875 0.875 0 0 0 5.5 3.625 A 0.875 0.875 0 0 0 6.375 4.5 A 0.875 0.875 0 0 0 7.25 3.625 A 0.875 0.875 0 0 0 6.375 2.75 z M 9.625 2.75 A 0.875 0.875 0 0 0 8.75 3.625 A 0.875 0.875 0 0 0 9.625 4.5 A 0.875 0.875 0 0 0 10.5 3.625 A 0.875 0.875 0 0 0 9.625 2.75 z " />
  <path
     id="beak_down"
     style="fill:#987e00;fill-opacity:1;stroke:#000000;stroke-opacity:1;stroke-width:0.1;stroke-dasharray:none"
     d="M 9.5,5.2446987 C 9.499619,5.6673525 8.2069533,6.2446988 8,6.2446988 c -0.2069533,0 -1.499619,-0.6379574 -1.5,-1.0000001 -3.81e-4,-0.3620426 3.000381,-0.4226536 3,0 z" />
  <path
     id="beak_up"
     style="fill:#ffd700;fill-opacity:1;stroke:#000000;stroke-opacity:1;stroke-width:0.1;stroke-dasharray:none"
     d="m 6.5,5.2 c 3.81e-4,-0.4226537 1.2930467,-1 1.5,-1 0.2069533,0 1.499619,0.6379574 1.5,1 C 9.5001922,5.3826455 8.7567643,5.155134 8,5.161 7.2566945,5.16676 6.4998112,5.4094309 6.5,5.2 Z" />
  <path
     id="path3"
     style="fill:#141a1d"
     d="M 6.5 3.25 A 0.5 0.5 0 0 0 6 3.75 A 0.5 0.5 0 0 0 6.5 4.25 A 0.5 0.5 0 0 0 7 3.75 A 0.5 0.5 0 0 0 6.5 3.25 z M 9.5 3.25 A 0.5 0.5 0 0 0 9 3.75 A 0.5 0.5 0 0 0 9.5 4.25 A 0.5 0.5 0 0 0 10 3.75 A 0.5 0.5 0 0 0 9.5 3.25 z "
     inkscape:label="pupils" />
</svg>
