<?xml version="1.0" encoding="UTF-8" standalone="no"?>
<svg
   width="16"
   height="16"
   viewBox="0 0 16 16"
   version="1.1"
   id="svg1"
   sodipodi:docname="icon.svg"
   inkscape:version="1.4.2 (ebf0e940, 2025-05-08)"
   xmlns:inkscape="http://www.inkscape.org/namespaces/inkscape"
   xmlns:sodipodi="http://sodipodi.sourceforge.net/DTD/sodipodi-0.dtd"
   xmlns="http://www.w3.org/2000/svg"
   xmlns:svg="http://www.w3.org/2000/svg">
  <defs
     id="defs1" />
  <sodipodi:namedview
     id="namedview1"
     pagecolor="#ffffff"
     bordercolor="#000000"
     borderopacity="0.25"
     inkscape:showpageshadow="2"
     inkscape:pageopacity="0.0"
     inkscape:pagecheckerboard="0"
     inkscape:deskcolor="#d1d1d1"
     showgrid="false"
     inkscape:zoom="39.463902"
     inkscape:cx="1.6470748"
     inkscape:cy="9.0715814"
     inkscape:window-width="1728"
     inkscape:window-height="1051"
     inkscape:window-x="0"
     inkscape:window-y="38"
     inkscape:window-maximized="0"
     inkscape:current-layer="svg1">
    <inkscape:grid
       id="grid1"
       units="px"
       originx="0"
       originy="0"
       spacingx="1"
       spacingy="1"
       empcolor="#0099e5"
       empopacity="0.30196078"
       color="#0099e5"
       opacity="0.14901961"
       empspacing="8"
       enabled="true"
       visible="false" />
  </sodipodi:namedview>
  <circle
     style="fill:#add8e6;stroke:none"
     id="path12"
     cx="8"
     cy="8"
     r="8" />
  <path
     id="use1"
     style="fill:#36454f;fill-opacity:1;stroke-width:0.1"
     d="M 8 1 C 5.716467 1 4.5055466 2.9523241 4.4003906 4.5 C 4.1810156 7.7287347 2.997208 8.0627533 3 10 C 3.001 10.708083 3.0315 15 8 15 C 12.9685 15 12.999 10.708083 13 10 C 13.002792 8.0627533 11.818984 7.7287347 11.599609 4.5 C 11.494453 2.9523241 10.283533 1 8 1 z "
     inkscape:label="body" />
  <path
     id="eyes"
     style="fill:#ebeff1;stroke:none;stroke-width:0.1;stroke-dasharray:none;stroke-opacity:1"
     d="M 6.375,2.75 A 0.875,0.875 0 0 0 5.5,3.625 0.875,0.875 0 0 0 6.375,4.5 0.875,0.875 0 0 0 7.25,3.625 0.875,0.875 0 0 0 6.375,2.75 Z m 3.25,0 A 0.875,0.875 0 0 0 8.75,3.625 0.875,0.875 0 0 0 9.625,4.5 0.875,0.875 0 0 0 10.5,3.625 0.875,0.875 0 0 0 9.625,2.75 Z" />
  <path
     id="path3"
     style="fill:#141a1d;stroke:none"
     d="M 6.5,3.25 A 0.5,0.5 0 0 0 6,3.75 0.5,0.5 0 0 0 6.5,4.25 0.5,0.5 0 0 0 7,3.75 0.5,0.5 0 0 0 6.5,3.25 Z m 3,0 A 0.5,0.5 0 0 0 9,3.75 0.5,0.5 0 0 0 9.5,4.25 0.5,0.5 0 0 0 10,3.75 0.5,0.5 0 0 0 9.5,3.25 Z"
     inkscape:label="pupils" />
  <path
     id="path6"
     style="fill:#daa520;fill-opacity:1;stroke:none;stroke-width:0.1125;stroke-dasharray:none;stroke-opacity:1"
     d="M 8,5.5 A 4.5,4.5 0 0 0 3.5,10 4.5,4.5 0 0 0 8,14.5 4.5,4.5 0 0 0 12.5,10 4.5,4.5 0 0 0 8,5.5 Z"
     inkscape:label="coin_out" />
  <path
     id="path7"
     style="fill:#b8860b;fill-opacity:1;stroke:none;stroke-width:0.0875;stroke-dasharray:none;stroke-opacity:1"
     d="M 8,6.5 A 3.5,3.5 0 0 0 4.5,10 3.5,3.5 0 0 0 8,13.5 3.5,3.5 0 0 0 11.5,10 3.5,3.5 0 0 0 8,6.5 Z"
     inkscape:label="coin_in" />
  <path
     id="wings"
     style="fill:#1d2529;stroke:none;stroke-width:0.1;stroke-dasharray:none;stroke-opacity:1;fill-opacity:1"
     d="M 4.257813,6.5585938 C 3.687307,6.5734538 2.404482,7.4761716 2.904297,9.2148438 3.129805,9.9993024 5.844007,10.281861 6.269531,9.6328125 6.787471,8.8428032 5.56143,8.6975579 5,7.5761719 4.607062,6.791329 4.560615,6.5507065 4.257813,6.5585938 Z m 7.484375,0 C 11.439385,6.5507065 11.392937,6.791329 11,7.5761719 10.43857,8.6975579 9.212529,8.8428032 9.730469,9.6328125 c 0.425524,0.6490485 3.139726,0.3664899 3.365234,-0.4179687 0.499818,-1.7386827 -0.783022,-2.6413902 -1.353515,-2.65625 z"
     sodipodi:nodetypes="ssssssssss" />
  <path
     id="path8"
     style="fill:#ffd700;stroke:none;stroke-width:0.11;stroke-dasharray:none;stroke-opacity:1"
     d="M 5.0742188 11.222656 C 4.3082569 11.198586 2.4653355 12.372982 2.4648438 12.960938 C 2.4642574 13.662149 4.7032382 15.178322 5.1738281 15.21875 C 5.3868255 15.23705 5.9237183 14.823625 6.0273438 14.648438 C 6.2027747 14.351854 5.9151422 11.249039 5.0742188 11.222656 z M 10.925781 11.222656 C 10.084754 11.249196 9.7972678 14.351925 9.9726562 14.648438 C 10.076276 14.823626 10.613175 15.237049 10.826172 15.21875 C 11.296761 15.17832 13.535742 13.662151 13.535156 12.960938 C 13.534664 12.372984 11.691743 11.198593 10.925781 11.222656 z "
     inkscape:label="legs" />
  <path
     id="beak_down"
     style="fill:#987e00;fill-opacity:1;stroke:none;stroke-width:0.1;stroke-dasharray:none;stroke-opacity:1"
     d="M 9.5,5.2446987 C 9.499619,5.6673525 8.206953,6.2446988 8,6.2446988 c -0.206953,0 -1.499619,-0.6379574 -1.5,-1.0000001 -3.81e-4,-0.3620426 3.000381,-0.4226536 3,0 z" />
  <path
     id="beak_up"
     style="fill:#ffd700;fill-opacity:1;stroke:none;stroke-width:0.1;stroke-dasharray:none;stroke-opacity:1"
     d="m 6.5,5.2 c 3.81e-4,-0.4226537 1.293047,-1 1.5,-1 0.206953,0 1.499619,0.6379574 1.5,1 C 9.500192,5.3826455 8.756764,5.155134 8,5.161 7.256695,5.16676 6.499811,5.4094309 6.5,5.2 Z" />
</svg>
