<?xml version="1.0" encoding="UTF-8" standalone="no"?>
<svg
   width="16"
   height="16"
   viewBox="0 0 16 16"
   version="1.1"
   id="svg1"
   sodipodi:docname="icon.svg"
   inkscape:version="1.4.2 (ebf0e940, 2025-05-08)"
   xmlns:inkscape="http://www.inkscape.org/namespaces/inkscape"
   xmlns:sodipodi="http://sodipodi.sourceforge.net/DTD/sodipodi-0.dtd"
   xmlns="http://www.w3.org/2000/svg"
   xmlns:svg="http://www.w3.org/2000/svg">
  <defs
     id="defs1" />
  <sodipodi:namedview
     id="namedview1"
     pagecolor="#ffffff"
     bordercolor="#000000"
     borderopacity="0.25"
     inkscape:showpageshadow="2"
     inkscape:pageopacity="0.0"
     inkscape:pagecheckerboard="0"
     inkscape:deskcolor="#d1d1d1"
     showgrid="true"
     inkscape:zoom="35.143189"
     inkscape:cx="3.4857394"
     inkscape:cy="9.8454354"
     inkscape:window-width="1728"
     inkscape:window-height="1051"
     inkscape:window-x="0"
     inkscape:window-y="38"
     inkscape:window-maximized="0"
     inkscape:current-layer="svg1">
    <inkscape:grid
       id="grid1"
       units="px"
       originx="0"
       originy="0"
       spacingx="1"
       spacingy="1"
       empcolor="#0099e5"
       empopacity="0.30196078"
       color="#0099e5"
       opacity="0.14901961"
       empspacing="8"
       enabled="true"
       visible="true" />
  </sodipodi:namedview>
  <circle
     style="fill:#add8e6"
     id="path12"
     cx="8"
     cy="8"
     r="8" />
  <path
     id="path4"
     style="fill:#36454f"
     d="M 8,1 C 5.790861,1 4.3886719,2.790861 4.3886719,5 4.3886719,7.0000003 3,7.9999995 3,10 H 13 C 13,7.9999995 11.611328,7.0000003 11.611328,5 11.611328,2.790861 10.209139,1 8,1 Z"
     sodipodi:nodetypes="ssccss"
     inkscape:label="head" />
  <path
     id="coin_border"
     style="fill:#daa520;fill-opacity:1"
     d="M 8 5 A 5 5.0000005 0 0 0 3 10 A 5 5.0000005 0 0 0 8 15 A 5 5.0000005 0 0 0 13 10 A 5 5.0000005 0 0 0 8 5 z " />
  <path
     id="coin_center"
     style="fill:#b8860b;fill-opacity:1"
     d="M 8 6 A 4 4 0 0 0 4 10 A 4 4 0 0 0 8 14 A 4 4 0 0 0 12 10 A 4 4 0 0 0 8 6 z " />
  <path
     id="wings"
     style="fill:#252f35"
     d="M 4.2578125 6.2929688 C 4.2393172 6.2930049 4.2196202 6.2942512 4.1992188 6.296875 C 3.5926277 6.374889 2.5141315 8.8712715 2.9042969 9.6152344 C 3.2276 10.231705 5.8440072 11.182251 6.2695312 10.533203 C 6.7874713 9.7431937 5.56143 9.5979485 5 8.4765625 C 4.5163845 7.510602 4.8311682 6.2918472 4.2578125 6.2929688 z M 11.742188 6.2929688 C 11.168832 6.2918472 11.483616 7.510602 11 8.4765625 C 10.43857 9.5979485 9.2125286 9.7431937 9.7304688 10.533203 C 10.155993 11.182251 12.7724 10.231705 13.095703 9.6152344 C 13.485868 8.8712715 12.407372 6.374889 11.800781 6.296875 C 11.78038 6.2942512 11.760683 6.2930049 11.742188 6.2929688 z " />
  <path
     id="legs"
     style="fill:#ffd700"
     d="m 13.87144,12.484215 c -4.93e-4,-0.589797 -2.040866,-1.827354 -2.554272,-1.535604 -0.570069,0.32395 -0.849432,2.791832 -0.684179,3.071207 0.0942,0.159262 0.58177,0.533571 0.775404,0.516936 0.427808,-0.03675 2.46358,-1.415073 2.463047,-2.052539 z m -11.7428802,0 c 4.931e-4,-0.589797 2.0408662,-1.827354 2.5542717,-1.535604 0.5700698,0.32395 0.8494324,2.791832 0.6841799,3.071207 C 5.272807,14.17908 4.7852413,14.553389 4.5916075,14.536754 4.163799,14.500001 2.1280268,13.121681 2.1285598,12.484215 Z" />
  <path
     id="eyes"
     style="fill:#ebeff1;stroke-width:0.875"
     d="M 6.375 2.75 A 0.875 0.875 0 0 0 5.5 3.625 A 0.875 0.875 0 0 0 6.375 4.5 A 0.875 0.875 0 0 0 7.25 3.625 A 0.875 0.875 0 0 0 6.375 2.75 z M 9.625 2.75 A 0.875 0.875 0 0 0 8.75 3.625 A 0.875 0.875 0 0 0 9.625 4.5 A 0.875 0.875 0 0 0 10.5 3.625 A 0.875 0.875 0 0 0 9.625 2.75 z " />
  <path
     id="beak_down"
     style="fill:#987e00;fill-opacity:1"
     d="M 9.5,5.2446987 C 9.499619,5.6673525 8.2069533,6.2446988 8,6.2446988 c -0.2069533,0 -1.499619,-0.6379574 -1.5,-1.0000001 -3.81e-4,-0.3620426 3.000381,-0.4226536 3,0 z" />
  <path
     id="beak_up"
     style="fill:#ffd700;fill-opacity:1"
     d="m 6.5,5.2 c 3.81e-4,-0.4226537 1.2930467,-1 1.5,-1 0.2069533,0 1.499619,0.6379574 1.5,1 C 9.5001922,5.3826455 8.7567643,5.155134 8,5.161 7.2566945,5.16676 6.4998112,5.4094309 6.5,5.2 Z" />
  <path
     id="path3"
     style="fill:#141a1d"
     d="M 6.5 3.25 A 0.5 0.5 0 0 0 6 3.75 A 0.5 0.5 0 0 0 6.5 4.25 A 0.5 0.5 0 0 0 7 3.75 A 0.5 0.5 0 0 0 6.5 3.25 z M 9.5 3.25 A 0.5 0.5 0 0 0 9 3.75 A 0.5 0.5 0 0 0 9.5 4.25 A 0.5 0.5 0 0 0 10 3.75 A 0.5 0.5 0 0 0 9.5 3.25 z "
     inkscape:label="pupils" />
</svg>
